<svg width="86" height="24" viewBox="0 0 86 24" fill="none" xmlns="http://www.w3.org/2000/svg">
<g clip-path="url(#clip0_3005_2641)">
<path fill-rule="evenodd" clip-rule="evenodd" d="M37.7907 10.2736C36.9415 10.1019 36.4623 10.0397 35.5695 10.0397C31.6509 10.0397 30.1617 12.3876 30.0312 14.5412C29.9163 16.4003 30.9073 17.7199 32.3787 17.7199C33.1308 17.7199 33.8248 17.4594 34.5626 16.8891L34.4251 17.5722H35.5707C36.3625 17.5318 36.4829 17.1709 36.6013 16.5665L37.8474 10.2851C37.8288 10.2819 37.8098 10.2776 37.7907 10.2736ZM33.2313 16.0733C32.5759 16.0733 31.9557 15.4812 32.0105 14.5863C32.0672 13.6724 32.9681 11.2956 35.6401 11.5746L34.8235 15.4206C34.3016 15.8437 33.7272 16.0733 33.2313 16.0733Z" fill="#0D3578"/>
<path fill-rule="evenodd" clip-rule="evenodd" d="M42.2318 10.0487H41.8L41.0622 10.0539C40.2693 10.0934 40.1535 10.4445 40.0351 11.0485C39.9901 11.2749 39.9407 11.5262 39.8856 11.8009L38.6985 17.5765L39.62 17.578L39.9093 17.5765C40.7011 17.5345 40.823 17.1814 40.9395 16.5759C41.042 16.0538 41.1682 15.3992 41.3224 14.6174L42.2318 10.0487Z" fill="#0D3578"/>
<path fill-rule="evenodd" clip-rule="evenodd" d="M42.591 8.34061C42.591 8.97627 42.0846 9.4916 41.4602 9.4916C40.8361 9.4916 40.3301 8.97627 40.3301 8.34061C40.3301 7.70416 40.8361 7.18803 41.4602 7.18803C42.0846 7.18803 42.591 7.70416 42.591 8.34061Z" fill="#0D3578"/>
<path fill-rule="evenodd" clip-rule="evenodd" d="M68.2792 10.0487H67.8481L67.1092 10.0539C66.3189 10.0934 66.2012 10.4445 66.0828 11.0485C66.0378 11.2753 65.9884 11.529 65.9337 11.8037L64.7454 17.5765H65.9582C66.7496 17.5345 66.8688 17.1814 66.988 16.5759C67.0886 16.0629 67.2117 15.4209 67.3631 14.655L68.2792 10.0487Z" fill="#0D3578"/>
<path fill-rule="evenodd" clip-rule="evenodd" d="M68.6379 8.34061C68.6379 8.97627 68.1323 9.4916 67.5078 9.4916C66.8838 9.4916 66.379 8.97627 66.379 8.34061C66.379 7.70416 66.8838 7.18803 67.5078 7.18803C68.1323 7.18803 68.6379 7.70416 68.6379 8.34061Z" fill="#0D3578"/>
<path fill-rule="evenodd" clip-rule="evenodd" d="M48.2084 10.0487C47.6721 10.0487 47.09 10.2977 46.3464 11.1597L46.3165 11.1261L46.5506 10.057L45.819 10.0657L45.5247 10.0709C44.7344 10.1124 44.4568 10.4615 44.3387 11.0675C44.2362 11.59 44.0941 12.2426 43.9321 13.0255L42.9788 17.5765H44.1671C44.9581 17.5345 45.0765 17.1807 45.1973 16.5759C45.2493 16.3083 45.3014 16.0601 45.348 15.8298L45.918 13.0988C46.0904 12.4928 46.7506 11.7744 47.2609 11.6731C47.7898 11.5682 48.2064 11.6058 48.9139 12.3986C48.9139 12.3986 48.9819 12.4793 49.0603 12.2988C49.1454 12.1017 49.5225 10.8949 49.5225 10.8949C49.0603 10.2981 48.6464 10.0487 48.2084 10.0487Z" fill="#0D3578"/>
<path fill-rule="evenodd" clip-rule="evenodd" d="M63.1925 10.0487C62.657 10.0487 62.0757 10.2977 61.3317 11.1597L61.3014 11.1261L61.5344 10.057L60.8032 10.0657L60.5104 10.0709C59.7209 10.1124 59.4417 10.4615 59.3233 11.0675C59.2208 11.59 59.0779 12.2426 58.9167 13.0255L57.9645 17.5765H59.152C59.943 17.5345 60.0619 17.1807 60.1823 16.5759C60.2339 16.3083 60.9026 13.0988 60.9026 13.0988C61.075 12.4928 61.7356 11.7744 62.247 11.6731C62.7763 11.5682 63.191 11.6058 63.9008 12.3986C63.9008 12.3986 63.9669 12.4793 64.0449 12.2988C64.1311 12.1013 64.5082 10.8949 64.5082 10.8949C64.0449 10.2981 63.6329 10.0487 63.1925 10.0487Z" fill="#0D3578"/>
<path fill-rule="evenodd" clip-rule="evenodd" d="M79.751 15.2807C80.391 15.1655 82.7605 14.858 83.8358 14.1008C84.9041 13.3433 85.4675 12.4681 85.0734 11.4501C84.6796 10.4337 83.4816 9.88315 81.4709 10.0256C79.4602 10.1669 78.4653 10.9716 78.0494 12.1543C77.6339 13.3361 77.0358 15.9642 77.8005 16.7927C78.6113 17.6682 79.4602 17.5684 80.9672 17.5684C81.3664 17.5684 82.8114 17.5676 82.8114 17.5676C83.5908 17.5676 83.9003 16.6114 83.9003 16.0422L80.5086 16.0462C80.5086 16.0462 79.1716 16.1079 79.1716 15.6373C79.1716 15.5435 79.2019 15.3812 79.751 15.2807ZM79.6663 13.5416C79.7541 13.1141 79.8884 11.5815 81.6452 11.5257C82.9403 11.485 83.6532 11.6785 82.9997 12.4844C82.3232 13.3175 80.6503 13.6587 79.951 13.8475C79.951 13.8475 79.5801 13.9666 79.6663 13.5416Z" fill="#0D3578"/>
<path fill-rule="evenodd" clip-rule="evenodd" d="M26.7978 7.92127C26.8079 7.86903 26.8273 7.77403 26.8273 7.77403C26.8273 7.77403 27.1147 6.97372 27.8331 6.93533C28.3849 6.93414 29.1891 6.93731 30.1871 6.95195C31.5451 6.97372 31.8087 6.02538 32.0367 5.39289H28.1041H28.0995C27.8537 5.38339 27.5663 5.38775 27.1605 5.39289H27.157C26.66 5.39289 26.1916 5.40754 25.7994 5.62839C25.4829 5.80532 25.3101 6.07961 25.1521 6.38398C25.0356 6.60879 24.9125 7.03943 24.7812 7.67746L24.3145 9.95055L23.3099 14.8525L22.7274 17.6897C23.6182 17.5491 24.8562 17.4173 25.2333 15.5674C25.3832 14.832 25.4748 14.3871 25.5288 14.116L25.8608 12.4979C25.9746 11.9917 26.1423 11.698 26.8615 11.658H26.9372V11.6572C27.3135 11.6608 27.8059 11.6648 28.4443 11.6743C29.8027 11.696 30.0675 10.7469 30.2966 10.1148H26.347L26.7978 7.92127Z" fill="#0D3578"/>
<path fill-rule="evenodd" clip-rule="evenodd" d="M59.5532 6.8015C59.2799 6.04275 58.7642 5.57056 57.9813 5.4257C57.005 5.2468 55.9628 5.33031 54.9753 5.33664C54.3524 5.341 53.6759 5.31408 53.1241 5.66595C52.7141 5.92639 52.4904 6.41639 52.358 6.87552C52.1296 7.67068 51.9922 8.50622 51.8194 9.31405L50.1138 17.6892C50.8249 17.5788 51.5491 17.4403 52.0446 16.86C52.398 16.4444 52.5471 15.9239 52.6547 15.3975C52.742 14.972 52.8372 14.5446 52.9156 14.1155C53.0247 13.5301 53.13 12.9459 53.2709 12.3534C53.3509 12.0087 53.8526 11.9889 54.1443 11.9513C54.5497 11.8967 54.9555 11.8591 55.3582 11.7846C56.5915 11.5586 57.8679 11.0271 58.7311 10.07C59.5004 9.21669 59.9649 7.93429 59.5532 6.8015ZM57.4601 8.65662C56.892 9.48345 55.9142 9.88241 54.995 10.1436C54.656 10.241 54.3151 10.3229 53.9757 10.4187C53.8965 10.4421 53.7978 10.4476 53.724 10.3993C53.66 10.3554 53.6949 10.3063 53.7073 10.241C53.7291 10.1345 53.752 10.0285 53.7734 9.92239C53.8821 9.3932 53.9904 8.86639 54.0992 8.338C54.1943 7.87293 54.3259 7.36709 54.7814 7.14703C55.1655 6.961 55.6249 6.94477 56.0439 6.95863C56.4792 6.97011 57.0003 6.94319 57.3677 7.21115C57.8558 7.56737 57.7681 8.20896 57.4601 8.65662Z" fill="#0D3578"/>
<path fill-rule="evenodd" clip-rule="evenodd" d="M73.6235 9.98066C71.6108 9.96879 70.3185 10.9049 69.9414 12.1267C69.5706 13.326 68.9271 15.835 69.694 16.7659C70.4517 17.6913 71.6128 17.5781 73.121 17.5781C73.519 17.5781 74.9636 17.5757 74.9636 17.5757C75.7445 17.5757 76.0509 16.5854 76.0509 16.0182L72.6616 16.019C72.6616 16.019 71.3394 16.1769 71.3394 14.8098C71.3394 14.3586 71.4667 13.9561 71.539 13.5164C71.6065 13.0988 72.0135 11.6347 73.6375 11.5445C73.9446 11.5445 74.2704 11.5393 74.6145 11.5393C74.8723 11.5393 75.8707 11.5385 75.8707 11.5385H76.1864C76.9662 11.5385 77.2749 10.5478 77.2749 9.97948C77.2749 9.97948 73.6495 9.98066 73.6235 9.98066Z" fill="#0D3578"/>
<mask id="mask0_3005_2641" style="mask-type:luminance" maskUnits="userSpaceOnUse" x="0" y="2" width="21" height="19">
<path fill-rule="evenodd" clip-rule="evenodd" d="M0.00050354 2H20.0872V20.9999H0.00050354V2Z" fill="white"/>
</mask>
<g mask="url(#mask0_3005_2641)">
<path fill-rule="evenodd" clip-rule="evenodd" d="M14.3441 3.80859C14.0855 3.97997 13.8606 4.09871 13.7201 4.66115L12.7283 9.25403L14.0195 9.91383C14.2156 8.78263 15.2143 7.75592 16.5323 6.53685C17.4518 5.68707 18.1341 5.09732 18.7205 4.63621C19.1003 4.33145 19.4758 4.17669 19.7193 4.10465L20.0754 2.4498C20.3713 1.01898 14.9153 3.42466 14.3441 3.80859ZM16.1324 8.48183C15.1488 9.78442 14.7686 10.9619 14.6474 12.048C14.8696 10.9417 15.8543 9.92849 17.1471 8.73198C17.9431 7.99698 18.5602 7.4571 19.0918 7.02647L19.6797 4.29069L19.4627 4.49492C18.5501 5.39537 17.6942 6.41337 16.1324 8.48183ZM15.2636 14.2427C15.485 13.1357 16.469 12.124 17.7633 10.9287C17.9784 10.7288 18.1811 10.5447 18.3722 10.3726L18.8879 7.97243C18.3116 8.64529 17.6468 9.48756 16.7478 10.6777C15.7646 11.9799 15.3836 13.157 15.2636 14.2427ZM12.4654 13.0514L12.418 12.7866L14.8699 14.0325C14.1542 12.7533 12.9446 11.7048 12.2957 11.199L12.0223 12.4545C11.9618 12.7561 11.9218 13.0363 11.9047 13.3003C11.7855 15.0589 12.611 15.9736 14.254 15.9736C14.6175 15.9736 14.9542 15.9308 15.2637 15.8473C14.2055 14.2229 12.4654 13.0514 12.4654 13.0514ZM16.0194 15.5354C16.7685 15.1024 17.3125 14.3551 17.6779 13.3435L17.6845 13.3217C17.761 13.0577 17.8352 12.7854 17.8985 12.5028L17.9101 12.4545L18.02 11.9471C17.815 12.2111 17.5968 12.4945 17.3626 12.8036C16.6205 13.78 16.2221 14.6856 16.0194 15.5354ZM12.5986 9.8054L12.3625 10.8895L14.2548 11.8513C13.809 11.0557 13.1718 10.3488 12.5986 9.8054ZM11.1931 20.7321C10.792 20.6731 10.4436 20.6031 10.1664 20.5342C10.0425 20.5061 9.91706 20.4736 9.79901 20.4408C9.7528 20.4222 9.71008 20.4127 9.67008 20.404C6.71144 19.4845 5.52084 17.1509 6.00314 13.3084V13.3005C6.02333 13.0365 6.0645 12.7563 6.12624 12.4547L8.27717 2.44723C8.57462 1.02591 3.11711 3.41616 2.54472 3.79692C2.27057 3.98097 2.03524 4.09812 1.89428 4.76307L0.343315 11.9061C-0.638757 16.6197 0.47884 19.4141 3.83008 20.4222H3.82814C6.08508 21.1971 9.71358 21.0107 11.2444 20.8864C11.4661 20.8682 11.4245 20.7626 11.1931 20.7321Z" fill="#EE2E24"/>
</g>
</g>
<defs>
<clipPath id="clip0_3005_2641">
<rect width="85.1993" height="19" fill="white" transform="translate(0 2)"/>
</clipPath>
</defs>
</svg>